<svg xmlns="http://www.w3.org/2000/svg" viewBox="0 0 227.83 322.84"><defs><style>.cls-1{fill:none;stroke:#231f20;stroke-miterlimit:10;stroke-width:1.05px;}.cls-2{fill:#fbb815;}.cls-3{fill:#ffd060;}.cls-4{fill:#ffc53c;}.cls-5{fill:#ffda81;}.cls-6{fill:#ffe3a2;}.cls-7{fill:#502711;}.cls-8{fill:#ffc53d;}.cls-9{fill:#462410;}.cls-10{fill:#fff4d8;}.cls-11{fill:#452410;}.cls-12{fill:#fffefa;}.cls-13{fill:#592b11;}.cls-14{fill:#723517;}</style></defs><g id="Layer_1" data-name="Layer 1"><line class="cls-1" x1="114.07" y1="246.09" x2="114.07" y2="94.09"/><line class="cls-1" x1="50.74" y1="138.76" x2="180.07" y2="138.31"/><line class="cls-1" x1="50.74" y1="138.31" x2="4.51" y2="106.76"/><line class="cls-1" x1="179.09" y1="138.51" x2="225.4" y2="104.98"/><line class="cls-1" x1="4.51" y1="107.2" x2="0.51" y2="88.53"/><line class="cls-1" x1="224.83" y1="104.67" x2="227.31" y2="85.74"/><line class="cls-1" x1="113.85" y1="245.42" x2="54.74" y2="321.87"/><line class="cls-1" x1="114.29" y1="245.42" x2="172.07" y2="315.2"/><line class="cls-1" x1="55.18" y1="321.42" x2="40.96" y2="322.31"/><line class="cls-1" x1="185.85" y1="314.53" x2="171.62" y2="315.42"/></g><g id="Layer_2" data-name="Layer 2"><path class="cls-2" d="M235.93,275.22a47.16,47.16,0,1,1,47.16-46.92A47.16,47.16,0,0,1,235.93,275.22Z" transform="translate(-118.93 -180.91)"/><path class="cls-3" d="M265.86,195a2.59,2.59,0,0,1,.7.66c.31.39.68.72,1,1.1.51.64,1,1.26,1.52,1.93l.34.48c.1.37,0,.47-.33.47-5.72,0-11.44,0-17.16,0a2.93,2.93,0,0,1-.66,0c-.29-.09-.33-.38-.48-.6a2.57,2.57,0,0,1-.31-.72,5.46,5.46,0,0,1,0,1.07.41.41,0,0,1-.4.27,3.54,3.54,0,0,1-.56,0H221.79c-.17,0-.33,0-.41-.19a5.06,5.06,0,0,1,0-1.1c-.15.24-.27.5-.41.75s-.18.38-.42.43c-5.78-.07-11.55,0-17.33,0a3,3,0,0,1-.52,0c-.14,0-.29,0-.29-.24a4.55,4.55,0,0,1,.66-1,24.45,24.45,0,0,1,2.2-2.57,5.87,5.87,0,0,1,.7-.71c.34,0,.67,0,1,0h57.86C265.19,195,265.52,195,265.86,195Z" transform="translate(-118.93 -180.91)"/><path class="cls-4" d="M221.43,199.26c0,.18.06.29.28.25a1.85,1.85,0,0,1,.41,0h28c.19,0,.31-.09.31-.3.16.05.14.2.17.31a12.76,12.76,0,0,0,4.15,6.47.63.63,0,0,1,.27.35.28.28,0,0,1-.32.21H217c-.16,0-.19-.1-.19-.23.13-.37.48-.54.74-.79a11.52,11.52,0,0,0,3.69-6C221.29,199.43,221.28,199.3,221.43,199.26Z" transform="translate(-118.93 -180.91)"/><path class="cls-5" d="M265.86,195a.41.41,0,0,1-.31.12h-59c-.21,0-.43.06-.59-.13a3.71,3.71,0,0,1,.71-.66,29.26,29.26,0,0,1,3.1-2.56l.09-.05a3.93,3.93,0,0,0,.9.09h50.15a6.09,6.09,0,0,0,1-.09,19.36,19.36,0,0,1,2.26,1.77C264.79,194,265.34,194.45,265.86,195Z" transform="translate(-118.93 -180.91)"/><path class="cls-6" d="M262,191.7a.13.13,0,0,1-.13.13,5.4,5.4,0,0,1-.69.08H210.53a1.29,1.29,0,0,1-.55-.07.15.15,0,0,1-.1-.13c.9-.67,1.84-1.27,2.8-1.85s2.1-1.18,3.18-1.7l.16-.06a2.19,2.19,0,0,0,.72.08h38.37a2.19,2.19,0,0,0,.72-.08,26.77,26.77,0,0,1,2.45,1.24,38.37,38.37,0,0,1,3.44,2.18Z" transform="translate(-118.93 -180.91)"/><path class="cls-7" d="M236.12,248.75a18.44,18.44,0,0,1,9.26,2.6,18.24,18.24,0,0,1,4.69,3.84,7.85,7.85,0,0,1,1.13,1.66,2.82,2.82,0,0,1,.24.69c.05.32,0,.43-.36.44a2.06,2.06,0,0,1-.65-.11,23.53,23.53,0,0,1-2.53-1,43.25,43.25,0,0,0-5.84-2,27.88,27.88,0,0,0-3.93-.69,23.06,23.06,0,0,0-4.07,0,27.93,27.93,0,0,0-6.14,1.27c-1.64.52-3.23,1.17-4.81,1.82a13.14,13.14,0,0,1-2,.69c-.65.13-.83-.07-.61-.7a4.19,4.19,0,0,1,.69-1.24,14.94,14.94,0,0,1,2.95-2.94,20.88,20.88,0,0,1,8.19-3.89,16.15,16.15,0,0,1,2.85-.39C235.51,248.78,235.83,248.73,236.12,248.75Z" transform="translate(-118.93 -180.91)"/><path class="cls-8" d="M202.42,199.21a.24.24,0,0,0,.23.14h15.52a16,16,0,0,1,2.5.06c.11.2,0,.33-.14.46a17.69,17.69,0,0,1-4.23,4.61,26,26,0,0,1-2.56,1.72.52.52,0,0,1-.36.11c-.08,0-.16-.09-.26,0a4.24,4.24,0,0,1-1.5.19H199.75c-.53,0-.62-.1-.52-.61a10.34,10.34,0,0,1,.69-2.17c.3-.68.63-1.34,1-2a24.84,24.84,0,0,1,1.43-2.37S202.39,199.24,202.42,199.21Z" transform="translate(-118.93 -180.91)"/><path class="cls-4" d="M251.2,199.49h17.92c.28,0,.28,0,.3-.25v-.1a16.7,16.7,0,0,1,1,1.59c.32.56.65,1.12.93,1.71s.67,1.45.94,2.2a5.8,5.8,0,0,1,.36,1.65c0,.29,0,.29-.29.29H259.77a1.72,1.72,0,0,1-.81-.15c-.08,0-.15-.07-.2,0a.52.52,0,0,1-.45-.13,21.39,21.39,0,0,1-3.7-2.63,18.94,18.94,0,0,1-2.92-3.28c-.17-.24-.31-.49-.47-.74C251.18,199.64,251.11,199.57,251.2,199.49Z" transform="translate(-118.93 -180.91)"/><path class="cls-9" d="M214.46,228a9.61,9.61,0,0,1,1.37-5.07,6.75,6.75,0,0,1,2-2.09,4.79,4.79,0,0,1,5.55.06,6.92,6.92,0,0,1,2.46,3.17,10,10,0,0,1-.38,8.71,6.26,6.26,0,0,1-2.41,2.59,4.65,4.65,0,0,1-5,0,6.9,6.9,0,0,1-2.68-3.21A9.81,9.81,0,0,1,214.46,228Z" transform="translate(-118.93 -180.91)"/><path class="cls-10" d="M255.83,188.09c0,.16-.16.18-.29.19h-39c-.2,0-.43.06-.55-.19a44.42,44.42,0,0,1,7.94-2.84l.4-.09a5.62,5.62,0,0,0,1,.08H246.9a2.89,2.89,0,0,0,.72,0,2.31,2.31,0,0,1,.78.16,44.47,44.47,0,0,1,6.81,2.42Z" transform="translate(-118.93 -180.91)"/><path class="cls-11" d="M252,220.1l.18,0c.07,0,.15,0,.21,0a4.79,4.79,0,0,1,1.74.81,6.83,6.83,0,0,1,2.19,2.66,11.89,11.89,0,0,1,.72,1.91l.09.39c.05.07,0,.16.05.22l0,.13c.06.09,0,.2.05.29a.46.46,0,0,1,0,.26c.06.14,0,.3.06.44a9.77,9.77,0,0,1,0,1.53c-.08.17,0,.35-.06.51v.19c-.06.09,0,.2-.06.3l0,.19c0,.06,0,.15-.05.22s0,0,0,.05,0,.16-.05.24a8.63,8.63,0,0,1-.46,1.47,7.46,7.46,0,0,1-2.41,3.17,4.86,4.86,0,0,1-3,1,5,5,0,0,1-3.32-1.39,7.94,7.94,0,0,1-2.31-4,2.48,2.48,0,0,1-.16-.81c-.06-.1,0-.21-.06-.3v-.12c-.07-.14,0-.3-.06-.44a.86.86,0,0,1,0-.32,8.66,8.66,0,0,1,0-1.44.74.74,0,0,1,0-.33c.06-.12,0-.25,0-.36l0-.2c0-.07,0-.16,0-.23l0-.12c.05-.07,0-.16.05-.23l0-.11c.05-.07,0-.16.06-.22a.06.06,0,0,1,0-.06c.06-.06,0-.16.06-.22a3.66,3.66,0,0,1,.31-1,8.21,8.21,0,0,1,1.4-2.32,5.68,5.68,0,0,1,2-1.49,3.56,3.56,0,0,1,1.28-.37c.09-.06.19,0,.29,0a4.6,4.6,0,0,1,.83,0C251.83,220.1,251.94,220.05,252,220.1Z" transform="translate(-118.93 -180.91)"/><path class="cls-7" d="M213.38,206.32a24.2,24.2,0,0,0,2.21-1.4c.31-.21.58-.47.88-.68a11,11,0,0,0,1.36-1.18,17.34,17.34,0,0,0,2.7-3.33c.06-.1.15-.18.14-.31.3-.43.49-.92.77-1.37a4.9,4.9,0,0,1,0,1.21c-.12.39-.18.79-.31,1.17a10.66,10.66,0,0,1-1.75,3.25,14.24,14.24,0,0,1-1.46,1.65c-.35.33-.72.65-1.07,1a27.39,27.39,0,0,1-2.69,1.86,17.66,17.66,0,0,1-5.86,2.3,12.88,12.88,0,0,1-4.59.1,5.13,5.13,0,0,1-1.23-.36,1.64,1.64,0,0,1-.47-.3c-.29-.27-.24-.55.13-.69a1.88,1.88,0,0,1,.47-.1c.58-.05,1.16-.1,1.74-.13a21.28,21.28,0,0,0,8.78-2.49A.65.65,0,0,0,213.38,206.32Z" transform="translate(-118.93 -180.91)"/><path class="cls-7" d="M251.2,199.49a15.87,15.87,0,0,0,2.42,3.16,20.51,20.51,0,0,0,4.13,3.3,6.48,6.48,0,0,0,1,.53,17.59,17.59,0,0,0,3,1.35,19.39,19.39,0,0,0,4.94,1.08l2.46.19a1.75,1.75,0,0,1,.6.14.34.34,0,0,1,.13.59,1.32,1.32,0,0,1-.46.32,5.4,5.4,0,0,1-1.8.48,14.75,14.75,0,0,1-7.5-1.21,21.13,21.13,0,0,1-4.85-2.9c-.1-.07-.17-.19-.31-.2a15.3,15.3,0,0,1-1.71-1.61,11.66,11.66,0,0,1-2.63-4.51c-.1-.33-.17-.67-.25-1a9.49,9.49,0,0,1,0-1.07l.06-.07A12.27,12.27,0,0,0,251.2,199.49Z" transform="translate(-118.93 -180.91)"/><path class="cls-12" d="M247.62,185.22a.75.75,0,0,1-.48.14c-.2,0-.4,0-.6,0q-10.65,0-21.3,0c-.29,0-.57-.09-.86-.08,0,0,0-.07,0-.12.85-.23,1.72-.37,2.58-.56a.66.66,0,0,1,.2,0c.07-.06.15,0,.22-.06l.19,0c.07,0,.16,0,.23,0l.19,0c.07,0,.15,0,.22-.05h.2c.07,0,.15,0,.22,0l.27,0c.06,0,.15,0,.22,0l.27,0c.09-.06.2,0,.29-.06l.26,0c.09,0,.2,0,.29,0a49.37,49.37,0,0,1,10.8-.07c.09,0,.2,0,.3,0l.33,0c.09.06.2,0,.29,0l.26,0c.09.06.2,0,.29,0l.27,0c.07,0,.15,0,.22,0l.27,0c.07,0,.15,0,.22,0l.2,0c.06.05.15,0,.22.05l.19,0c.07,0,.16,0,.23,0l.19,0c.07.05.15,0,.22.05C245.69,184.76,246.66,185,247.62,185.22Z" transform="translate(-118.93 -180.91)"/><path class="cls-13" d="M245.32,227.33v1.44A3.67,3.67,0,0,1,245.32,227.33Z" transform="translate(-118.93 -180.91)"/><path class="cls-13" d="M257.31,229.32c0-.17-.06-.35.06-.51A1,1,0,0,1,257.31,229.32Z" transform="translate(-118.93 -180.91)"/><path class="cls-13" d="M257.37,227.28c-.12-.14-.05-.29-.06-.44A.74.74,0,0,1,257.37,227.28Z" transform="translate(-118.93 -180.91)"/><path class="cls-13" d="M245.33,229.09c.12.13,0,.29.06.44A.74.74,0,0,1,245.33,229.09Z" transform="translate(-118.93 -180.91)"/><path class="cls-13" d="M245.39,226.64c0,.12.05.25,0,.36A.45.45,0,0,1,245.39,226.64Z" transform="translate(-118.93 -180.91)"/><path class="cls-13" d="M257.24,229.81c0-.1,0-.21.06-.3A.36.36,0,0,1,257.24,229.81Z" transform="translate(-118.93 -180.91)"/><path class="cls-13" d="M257.29,226.58c-.09-.08-.05-.19-.05-.29A.37.37,0,0,1,257.29,226.58Z" transform="translate(-118.93 -180.91)"/><path class="cls-13" d="M252,220.1c-.11,0-.22,0-.31,0A.42.42,0,0,1,252,220.1Z" transform="translate(-118.93 -180.91)"/><path class="cls-13" d="M250.9,220.05c-.09.09-.19,0-.29,0A.36.36,0,0,1,250.9,220.05Z" transform="translate(-118.93 -180.91)"/><path class="cls-13" d="M245.4,229.65c.1.08.06.19.06.3A.36.36,0,0,1,245.4,229.65Z" transform="translate(-118.93 -180.91)"/><path class="cls-10" d="M242.48,184.23c-.1,0-.2,0-.29,0A.42.42,0,0,1,242.48,184.23Z" transform="translate(-118.93 -180.91)"/><path class="cls-10" d="M229.66,184.18c-.09.09-.19.06-.29.06A.43.43,0,0,1,229.66,184.18Z" transform="translate(-118.93 -180.91)"/><path class="cls-10" d="M230.21,184.12c-.08.08-.19,0-.29,0A.42.42,0,0,1,230.21,184.12Z" transform="translate(-118.93 -180.91)"/><path class="cls-10" d="M241.31,184.09c-.11,0-.21,0-.3,0A.45.45,0,0,1,241.31,184.09Z" transform="translate(-118.93 -180.91)"/><path class="cls-10" d="M241.93,184.16c-.1,0-.21,0-.29,0A.49.49,0,0,1,241.93,184.16Z" transform="translate(-118.93 -180.91)"/><path class="cls-13" d="M245.6,225.53c0,.08,0,.16-.06.22A.24.24,0,0,1,245.6,225.53Z" transform="translate(-118.93 -180.91)"/><path class="cls-10" d="M243.46,184.37a.2.2,0,0,1-.22,0A.29.29,0,0,1,243.46,184.37Z" transform="translate(-118.93 -180.91)"/><path class="cls-13" d="M257.22,226.16a.22.22,0,0,1-.05-.22A.22.22,0,0,1,257.22,226.16Z" transform="translate(-118.93 -180.91)"/><path class="cls-10" d="M228.61,184.33a.22.22,0,0,1-.22,0A.25.25,0,0,1,228.61,184.33Z" transform="translate(-118.93 -180.91)"/><path class="cls-13" d="M245.52,225.86c0,.08,0,.17-.05.23A.28.28,0,0,1,245.52,225.86Z" transform="translate(-118.93 -180.91)"/><path class="cls-13" d="M245.67,225.25c0,.08,0,.16-.06.22A.25.25,0,0,1,245.67,225.25Z" transform="translate(-118.93 -180.91)"/><path class="cls-13" d="M252.43,220.17a.21.21,0,0,1-.21,0A.26.26,0,0,1,252.43,220.17Z" transform="translate(-118.93 -180.91)"/><path class="cls-10" d="M228.19,184.39a.19.19,0,0,1-.22.05A.29.29,0,0,1,228.19,184.39Z" transform="translate(-118.93 -180.91)"/><path class="cls-10" d="M243,184.3a.2.2,0,0,1-.22,0A.28.28,0,0,1,243,184.3Z" transform="translate(-118.93 -180.91)"/><path class="cls-10" d="M229.1,184.26a.2.2,0,0,1-.22,0A.28.28,0,0,1,229.1,184.26Z" transform="translate(-118.93 -180.91)"/><path class="cls-10" d="M244.71,184.58a.2.2,0,0,1-.22-.05A.28.28,0,0,1,244.71,184.58Z" transform="translate(-118.93 -180.91)"/><path class="cls-10" d="M227.36,184.53c-.06.08-.14.07-.22.06A.25.25,0,0,1,227.36,184.53Z" transform="translate(-118.93 -180.91)"/><path class="cls-10" d="M244.3,184.51a.21.21,0,0,1-.23,0A.32.32,0,0,1,244.3,184.51Z" transform="translate(-118.93 -180.91)"/><path class="cls-13" d="M257.11,230.51c0-.09,0-.17.05-.24A.29.29,0,0,1,257.11,230.51Z" transform="translate(-118.93 -180.91)"/><path class="cls-10" d="M227.78,184.46a.22.22,0,0,1-.23,0A.32.32,0,0,1,227.78,184.46Z" transform="translate(-118.93 -180.91)"/><path class="cls-10" d="M243.88,184.44a.19.19,0,0,1-.22-.05A.29.29,0,0,1,243.88,184.44Z" transform="translate(-118.93 -180.91)"/><path class="cls-13" d="M257.17,230.22a.22.22,0,0,1,.05-.22A.25.25,0,0,1,257.17,230.22Z" transform="translate(-118.93 -180.91)"/><path class="cls-13" d="M245.45,226.21c0,.08,0,.17,0,.23A.24.24,0,0,1,245.45,226.21Z" transform="translate(-118.93 -180.91)"/><path class="cls-14" d="M223.81,228a5.24,5.24,0,0,1-.83,3,3.46,3.46,0,0,1-2.37,1.54h-.14a3.59,3.59,0,0,1-2.8-2.27,5.39,5.39,0,0,1-.38-1.22,1.52,1.52,0,0,1,0-.21,7.13,7.13,0,0,0,0-.79,2.67,2.67,0,0,1,.07-.79,5.62,5.62,0,0,1,.78-2.16A3,3,0,0,1,219.2,224a3.28,3.28,0,0,1,1.17-.38,2.36,2.36,0,0,1,.92.13,3.08,3.08,0,0,1,1.53,1.1,5,5,0,0,1,.93,2.28C223.8,227.46,223.79,227.74,223.81,228Z" transform="translate(-118.93 -180.91)"/><path class="cls-13" d="M246.65,228.11a7.22,7.22,0,0,1,1-4,4.76,4.76,0,0,1,1.29-1.47,4.66,4.66,0,0,1,1.44-.73,3.33,3.33,0,0,1,2.4.19,4.93,4.93,0,0,1,1.91,1.6,6.55,6.55,0,0,1,1.09,2.35,5.9,5.9,0,0,1,.18,1.19c0,.29.06.57.06.86a7.69,7.69,0,0,1-.8,3.44,5.27,5.27,0,0,1-1.34,1.8,3.76,3.76,0,0,1-4.77.28,5.71,5.71,0,0,1-1.72-2.06,7.21,7.21,0,0,1-.65-2A6.74,6.74,0,0,1,246.65,228.11Z" transform="translate(-118.93 -180.91)"/></g></svg>